<svg xmlns="http://www.w3.org/2000/svg" viewBox="0 0 32 32" width="32" height="32">
  <rect width="32" height="32" rx="7" fill="#0d0d0f"/>

  <!-- T elements in orange: crossbar + vertical strokes -->
  <rect fill="#F7931A" x="8" y="3.5" width="16" height="2.5" rx="1.2"/>
  <rect fill="#F7931A" x="12" y="3.5" width="2" height="25" rx="0.8"/>
  <rect fill="#F7931A" x="18" y="3.5" width="2" height="25" rx="0.8"/>

  <!-- B body in white (covers middle portion of strokes) -->
  <path fill="#e8e8e8" d="M7 9 H16 C20 9 22 11 22 13 C22 15 20 16.5 17.5 16.5 C20.5 17 23 18.5 23 21 C23 23.5 21 25 17 25 H7 Z"/>

  <!-- Counter-spaces -->
  <path fill="#0d0d0f" d="M10 11 H15 C17.5 11 19 12 19 13.2 C19 14.2 17.5 15 15 15 H10 Z"/>
  <path fill="#0d0d0f" d="M10 18.5 H16 C18.5 18.5 20 19.5 20 20.8 C20 22 18.5 22.8 16 22.8 H10 Z"/>
</svg>
